<svg xmlns="http://www.w3.org/2000/svg" xmlns:xlink="http://www.w3.org/1999/xlink" width="500" zoomAndPan="magnify" viewBox="0 0 375 374.999991" height="500" preserveAspectRatio="xMidYMid meet" version="1.0"><defs><g/><clipPath id="d00fa19880"><path d="M 331.757812 95.15625 L 355.007812 95.15625 L 355.007812 107.90625 L 331.757812 107.90625 Z M 331.757812 95.15625 " clip-rule="nonzero"/></clipPath></defs><g fill="#ffffff" fill-opacity="1"><g transform="translate(16.843273, 162.10666)"><g><path d="M 21.84375 0 C 20.53125 0 19.453125 -0.40625 18.609375 -1.21875 C 17.773438 -2.039062 17.359375 -3.054688 17.359375 -4.265625 L 17.359375 -44.875 L 26.453125 -44.875 L 26.453125 -4.265625 C 26.453125 -3.054688 26.019531 -2.039062 25.15625 -1.21875 C 24.300781 -0.40625 23.195312 0 21.84375 0 Z M 6.375 -40.953125 C 5.15625 -40.953125 4.132812 -41.320312 3.3125 -42.0625 C 2.5 -42.8125 2.09375 -43.796875 2.09375 -45.015625 C 2.09375 -46.222656 2.5 -47.1875 3.3125 -47.90625 C 4.132812 -48.632812 5.15625 -49 6.375 -49 L 37.453125 -49 C 38.660156 -49 39.671875 -48.625 40.484375 -47.875 C 41.304688 -47.132812 41.71875 -46.15625 41.71875 -44.9375 C 41.71875 -43.726562 41.304688 -42.757812 40.484375 -42.03125 C 39.671875 -41.3125 38.660156 -40.953125 37.453125 -40.953125 Z M 6.375 -40.953125 "/></g></g></g><g fill="#ffffff" fill-opacity="1"><g transform="translate(56.461022, 162.10666)"><g><path d="M 8.75 0 C 7.539062 0 6.535156 -0.40625 5.734375 -1.21875 C 4.941406 -2.039062 4.546875 -3.054688 4.546875 -4.265625 L 4.546875 -33.1875 C 4.546875 -34.394531 4.941406 -35.40625 5.734375 -36.21875 C 6.535156 -37.039062 7.539062 -37.453125 8.75 -37.453125 C 9.957031 -37.453125 10.957031 -37.039062 11.75 -36.21875 C 12.550781 -35.40625 12.953125 -34.394531 12.953125 -33.1875 L 12.953125 -26.59375 L 12.453125 -31.296875 C 12.972656 -32.410156 13.640625 -33.398438 14.453125 -34.265625 C 15.273438 -35.128906 16.195312 -35.851562 17.21875 -36.4375 C 18.25 -37.019531 19.347656 -37.453125 20.515625 -37.734375 C 21.679688 -38.015625 22.847656 -38.15625 24.015625 -38.15625 C 25.410156 -38.15625 26.585938 -37.753906 27.546875 -36.953125 C 28.503906 -36.160156 28.984375 -35.226562 28.984375 -34.15625 C 28.984375 -32.613281 28.582031 -31.503906 27.78125 -30.828125 C 26.988281 -30.148438 26.128906 -29.8125 25.203125 -29.8125 C 24.316406 -29.8125 23.507812 -29.972656 22.78125 -30.296875 C 22.0625 -30.628906 21.234375 -30.796875 20.296875 -30.796875 C 19.460938 -30.796875 18.613281 -30.597656 17.75 -30.203125 C 16.882812 -29.804688 16.085938 -29.1875 15.359375 -28.34375 C 14.640625 -27.507812 14.054688 -26.472656 13.609375 -25.234375 C 13.171875 -23.992188 12.953125 -22.535156 12.953125 -20.859375 L 12.953125 -4.265625 C 12.953125 -3.054688 12.550781 -2.039062 11.75 -1.21875 C 10.957031 -0.40625 9.957031 0 8.75 0 Z M 8.75 0 "/></g></g></g><g fill="#ffffff" fill-opacity="1"><g transform="translate(86.839362, 162.10666)"><g><path d="M 32.34375 -37.453125 C 33.550781 -37.453125 34.550781 -37.039062 35.34375 -36.21875 C 36.144531 -35.40625 36.546875 -34.394531 36.546875 -33.1875 L 36.546875 -15.40625 C 36.546875 -10.457031 35.164062 -6.535156 32.40625 -3.640625 C 29.65625 -0.742188 25.691406 0.703125 20.515625 0.703125 C 15.328125 0.703125 11.367188 -0.742188 8.640625 -3.640625 C 5.910156 -6.535156 4.546875 -10.457031 4.546875 -15.40625 L 4.546875 -33.1875 C 4.546875 -34.394531 4.941406 -35.40625 5.734375 -36.21875 C 6.535156 -37.039062 7.539062 -37.453125 8.75 -37.453125 C 9.957031 -37.453125 10.957031 -37.039062 11.75 -36.21875 C 12.550781 -35.40625 12.953125 -34.394531 12.953125 -33.1875 L 12.953125 -15.40625 C 12.953125 -12.550781 13.582031 -10.4375 14.84375 -9.0625 C 16.101562 -7.6875 17.992188 -7 20.515625 -7 C 23.078125 -7 24.988281 -7.6875 26.25 -9.0625 C 27.507812 -10.4375 28.140625 -12.550781 28.140625 -15.40625 L 28.140625 -33.1875 C 28.140625 -34.394531 28.535156 -35.40625 29.328125 -36.21875 C 30.117188 -37.039062 31.125 -37.453125 32.34375 -37.453125 Z M 32.34375 -37.453125 "/></g></g></g><g fill="#ffffff" fill-opacity="1"><g transform="translate(127.927116, 162.10666)"><g><path d="M 25.484375 -49 C 27.910156 -49 30.179688 -48.296875 32.296875 -46.890625 C 34.421875 -45.492188 36.132812 -43.601562 37.4375 -41.21875 C 38.75 -38.84375 39.40625 -36.1875 39.40625 -33.25 C 39.40625 -30.351562 38.75 -27.710938 37.4375 -25.328125 C 36.132812 -22.953125 34.421875 -21.050781 32.296875 -19.625 C 30.179688 -18.207031 27.910156 -17.5 25.484375 -17.5 L 12.59375 -17.5 L 13.296875 -18.765625 L 13.296875 -4.265625 C 13.296875 -3.054688 12.921875 -2.039062 12.171875 -1.21875 C 11.429688 -0.40625 10.453125 0 9.234375 0 C 8.066406 0 7.109375 -0.40625 6.359375 -1.21875 C 5.617188 -2.039062 5.25 -3.054688 5.25 -4.265625 L 5.25 -44.734375 C 5.25 -45.941406 5.65625 -46.953125 6.46875 -47.765625 C 7.289062 -48.585938 8.304688 -49 9.515625 -49 Z M 25.484375 -25.484375 C 26.367188 -25.484375 27.226562 -25.851562 28.0625 -26.59375 C 28.90625 -27.34375 29.609375 -28.3125 30.171875 -29.5 C 30.734375 -30.695312 31.015625 -31.945312 31.015625 -33.25 C 31.015625 -34.601562 30.734375 -35.863281 30.171875 -37.03125 C 29.609375 -38.195312 28.90625 -39.140625 28.0625 -39.859375 C 27.226562 -40.585938 26.367188 -40.953125 25.484375 -40.953125 L 12.453125 -40.953125 L 13.296875 -42.203125 L 13.296875 -24.359375 L 12.53125 -25.484375 Z M 25.484375 -25.484375 "/></g></g></g><g fill="#ffffff" fill-opacity="1"><g transform="translate(169.434835, 162.10666)"><g><path d="M 40.875 -18.6875 C 40.875 -14.863281 40.019531 -11.492188 38.3125 -8.578125 C 36.613281 -5.660156 34.328125 -3.382812 31.453125 -1.75 C 28.585938 -0.113281 25.382812 0.703125 21.84375 0.703125 C 18.289062 0.703125 15.078125 -0.113281 12.203125 -1.75 C 9.335938 -3.382812 7.050781 -5.660156 5.34375 -8.578125 C 3.644531 -11.492188 2.796875 -14.863281 2.796875 -18.6875 C 2.796875 -22.519531 3.644531 -25.894531 5.34375 -28.8125 C 7.050781 -31.726562 9.335938 -34.015625 12.203125 -35.671875 C 15.078125 -37.328125 18.289062 -38.15625 21.84375 -38.15625 C 25.382812 -38.15625 28.585938 -37.328125 31.453125 -35.671875 C 34.328125 -34.015625 36.613281 -31.726562 38.3125 -28.8125 C 40.019531 -25.894531 40.875 -22.519531 40.875 -18.6875 Z M 32.484375 -18.6875 C 32.484375 -21.070312 32.003906 -23.140625 31.046875 -24.890625 C 30.085938 -26.640625 28.800781 -28.003906 27.1875 -28.984375 C 25.582031 -29.960938 23.800781 -30.453125 21.84375 -30.453125 C 19.882812 -30.453125 18.097656 -29.960938 16.484375 -28.984375 C 14.867188 -28.003906 13.582031 -26.640625 12.625 -24.890625 C 11.675781 -23.140625 11.203125 -21.070312 11.203125 -18.6875 C 11.203125 -16.351562 11.675781 -14.3125 12.625 -12.5625 C 13.582031 -10.8125 14.867188 -9.445312 16.484375 -8.46875 C 18.097656 -7.488281 19.882812 -7 21.84375 -7 C 23.800781 -7 25.582031 -7.488281 27.1875 -8.46875 C 28.800781 -9.445312 30.085938 -10.8125 31.046875 -12.5625 C 32.003906 -14.3125 32.484375 -16.351562 32.484375 -18.6875 Z M 32.484375 -18.6875 "/></g></g></g><g fill="#ffffff" fill-opacity="1"><g transform="translate(213.112456, 162.10666)"><g><path d="M 47.671875 -37.453125 C 48.742188 -37.453125 49.675781 -37.039062 50.46875 -36.21875 C 51.257812 -35.40625 51.65625 -34.367188 51.65625 -33.109375 C 51.65625 -32.785156 51.628906 -32.492188 51.578125 -32.234375 C 51.535156 -31.972656 51.46875 -31.726562 51.375 -31.5 L 40.671875 -2.65625 C 40.347656 -1.726562 39.765625 -1.019531 38.921875 -0.53125 C 38.078125 -0.0390625 37.191406 0.132812 36.265625 0 C 34.671875 -0.09375 33.476562 -0.976562 32.6875 -2.65625 L 25.765625 -22.609375 L 27.578125 -22.546875 L 21.0625 -2.65625 C 20.269531 -0.976562 19.082031 -0.09375 17.5 0 C 16.613281 0.132812 15.738281 -0.0390625 14.875 -0.53125 C 14.007812 -1.019531 13.414062 -1.726562 13.09375 -2.65625 L 2.375 -31.5 C 2.1875 -32.007812 2.09375 -32.546875 2.09375 -33.109375 C 2.09375 -34.234375 2.46875 -35.238281 3.21875 -36.125 C 3.96875 -37.007812 4.992188 -37.453125 6.296875 -37.453125 C 7.179688 -37.453125 7.972656 -37.238281 8.671875 -36.8125 C 9.378906 -36.394531 9.875 -35.722656 10.15625 -34.796875 L 18.625 -11.828125 L 16.875 -11.96875 L 23.234375 -29.265625 C 23.984375 -30.984375 25.269531 -31.84375 27.09375 -31.84375 C 28.113281 -31.84375 28.890625 -31.617188 29.421875 -31.171875 C 29.960938 -30.734375 30.398438 -30.097656 30.734375 -29.265625 L 37.09375 -11.96875 L 35 -11.6875 L 43.609375 -34.796875 C 44.171875 -36.566406 45.523438 -37.453125 47.671875 -37.453125 Z M 47.671875 -37.453125 "/></g></g></g><g fill="#ffffff" fill-opacity="1"><g transform="translate(266.869517, 162.10666)"><g><path d="M 22.1875 0.703125 C 18.21875 0.703125 14.773438 -0.125 11.859375 -1.78125 C 8.941406 -3.4375 6.703125 -5.6875 5.140625 -8.53125 C 3.578125 -11.382812 2.796875 -14.609375 2.796875 -18.203125 C 2.796875 -22.398438 3.644531 -25.976562 5.34375 -28.9375 C 7.050781 -31.90625 9.28125 -34.179688 12.03125 -35.765625 C 14.789062 -37.359375 17.710938 -38.15625 20.796875 -38.15625 C 23.171875 -38.15625 25.421875 -37.660156 27.546875 -36.671875 C 29.671875 -35.691406 31.546875 -34.347656 33.171875 -32.640625 C 34.804688 -30.941406 36.101562 -28.972656 37.0625 -26.734375 C 38.019531 -24.492188 38.5 -22.113281 38.5 -19.59375 C 38.457031 -18.476562 38.015625 -17.566406 37.171875 -16.859375 C 36.328125 -16.160156 35.347656 -15.8125 34.234375 -15.8125 L 7.484375 -15.8125 L 5.390625 -22.8125 L 31.078125 -22.8125 L 29.546875 -21.421875 L 29.546875 -23.3125 C 29.453125 -24.664062 28.972656 -25.878906 28.109375 -26.953125 C 27.242188 -28.023438 26.164062 -28.875 24.875 -29.5 C 23.59375 -30.132812 22.234375 -30.453125 20.796875 -30.453125 C 19.390625 -30.453125 18.078125 -30.265625 16.859375 -29.890625 C 15.648438 -29.515625 14.601562 -28.882812 13.71875 -28 C 12.832031 -27.113281 12.128906 -25.921875 11.609375 -24.421875 C 11.097656 -22.929688 10.84375 -21.046875 10.84375 -18.765625 C 10.84375 -16.242188 11.367188 -14.109375 12.421875 -12.359375 C 13.472656 -10.609375 14.828125 -9.273438 16.484375 -8.359375 C 18.140625 -7.453125 19.898438 -7 21.765625 -7 C 23.492188 -7 24.867188 -7.140625 25.890625 -7.421875 C 26.921875 -7.703125 27.75 -8.039062 28.375 -8.4375 C 29.007812 -8.832031 29.582031 -9.171875 30.09375 -9.453125 C 30.9375 -9.867188 31.734375 -10.078125 32.484375 -10.078125 C 33.503906 -10.078125 34.351562 -9.726562 35.03125 -9.03125 C 35.707031 -8.332031 36.046875 -7.515625 36.046875 -6.578125 C 36.046875 -5.316406 35.394531 -4.175781 34.09375 -3.15625 C 32.875 -2.125 31.164062 -1.222656 28.96875 -0.453125 C 26.78125 0.316406 24.519531 0.703125 22.1875 0.703125 Z M 22.1875 0.703125 "/></g></g></g><g fill="#ffffff" fill-opacity="1"><g transform="translate(308.167259, 162.10666)"><g><path d="M 8.75 0 C 7.539062 0 6.535156 -0.40625 5.734375 -1.21875 C 4.941406 -2.039062 4.546875 -3.054688 4.546875 -4.265625 L 4.546875 -33.1875 C 4.546875 -34.394531 4.941406 -35.40625 5.734375 -36.21875 C 6.535156 -37.039062 7.539062 -37.453125 8.75 -37.453125 C 9.957031 -37.453125 10.957031 -37.039062 11.75 -36.21875 C 12.550781 -35.40625 12.953125 -34.394531 12.953125 -33.1875 L 12.953125 -26.59375 L 12.453125 -31.296875 C 12.972656 -32.410156 13.640625 -33.398438 14.453125 -34.265625 C 15.273438 -35.128906 16.195312 -35.851562 17.21875 -36.4375 C 18.25 -37.019531 19.347656 -37.453125 20.515625 -37.734375 C 21.679688 -38.015625 22.847656 -38.15625 24.015625 -38.15625 C 25.410156 -38.15625 26.585938 -37.753906 27.546875 -36.953125 C 28.503906 -36.160156 28.984375 -35.226562 28.984375 -34.15625 C 28.984375 -32.613281 28.582031 -31.503906 27.78125 -30.828125 C 26.988281 -30.148438 26.128906 -29.8125 25.203125 -29.8125 C 24.316406 -29.8125 23.507812 -29.972656 22.78125 -30.296875 C 22.0625 -30.628906 21.234375 -30.796875 20.296875 -30.796875 C 19.460938 -30.796875 18.613281 -30.597656 17.75 -30.203125 C 16.882812 -29.804688 16.085938 -29.1875 15.359375 -28.34375 C 14.640625 -27.507812 14.054688 -26.472656 13.609375 -25.234375 C 13.171875 -23.992188 12.953125 -22.535156 12.953125 -20.859375 L 12.953125 -4.265625 C 12.953125 -3.054688 12.550781 -2.039062 11.75 -1.21875 C 10.957031 -0.40625 9.957031 0 8.75 0 Z M 8.75 0 "/></g></g></g><g fill="#ffffff" fill-opacity="1"><g transform="translate(338.546377, 162.10666)"><g/></g></g><g fill="#ffffff" fill-opacity="1"><g transform="translate(43.19874, 219.856656)"><g><path d="M 9.515625 -49 L 32.96875 -49 C 34.1875 -49 35.203125 -48.613281 36.015625 -47.84375 C 36.828125 -47.070312 37.234375 -46.082031 37.234375 -44.875 C 37.234375 -43.707031 36.828125 -42.757812 36.015625 -42.03125 C 35.203125 -41.3125 34.1875 -40.953125 32.96875 -40.953125 L 13.375 -40.953125 L 14 -42.140625 L 14 -28.484375 L 13.4375 -29.046875 L 29.8125 -29.046875 C 31.03125 -29.046875 32.046875 -28.660156 32.859375 -27.890625 C 33.679688 -27.117188 34.09375 -26.128906 34.09375 -24.921875 C 34.09375 -23.753906 33.679688 -22.804688 32.859375 -22.078125 C 32.046875 -21.359375 31.03125 -21 29.8125 -21 L 13.65625 -21 L 14 -21.5625 L 14 -7.421875 L 13.4375 -8.046875 L 32.96875 -8.046875 C 34.1875 -8.046875 35.203125 -7.632812 36.015625 -6.8125 C 36.828125 -6 37.234375 -5.054688 37.234375 -3.984375 C 37.234375 -2.816406 36.828125 -1.859375 36.015625 -1.109375 C 35.203125 -0.367188 34.1875 0 32.96875 0 L 9.515625 0 C 8.304688 0 7.289062 -0.40625 6.46875 -1.21875 C 5.65625 -2.039062 5.25 -3.054688 5.25 -4.265625 L 5.25 -44.734375 C 5.25 -45.941406 5.65625 -46.953125 6.46875 -47.765625 C 7.289062 -48.585938 8.304688 -49 9.515625 -49 Z M 9.515625 -49 "/></g></g></g><g fill="#ffffff" fill-opacity="1"><g transform="translate(83.236557, 219.856656)"><g><path d="M 24.5625 -38.15625 C 28.019531 -38.15625 30.644531 -37.429688 32.4375 -35.984375 C 34.238281 -34.535156 35.476562 -32.609375 36.15625 -30.203125 C 36.832031 -27.796875 37.171875 -25.125 37.171875 -22.1875 L 37.171875 -4.265625 C 37.171875 -3.054688 36.773438 -2.039062 35.984375 -1.21875 C 35.191406 -0.40625 34.1875 0 32.96875 0 C 31.757812 0 30.753906 -0.40625 29.953125 -1.21875 C 29.160156 -2.039062 28.765625 -3.054688 28.765625 -4.265625 L 28.765625 -22.1875 C 28.765625 -23.726562 28.566406 -25.113281 28.171875 -26.34375 C 27.773438 -27.582031 27.0625 -28.578125 26.03125 -29.328125 C 25.007812 -30.078125 23.539062 -30.453125 21.625 -30.453125 C 19.757812 -30.453125 18.1875 -30.078125 16.90625 -29.328125 C 15.625 -28.578125 14.644531 -27.582031 13.96875 -26.34375 C 13.289062 -25.113281 12.953125 -23.726562 12.953125 -22.1875 L 12.953125 -4.265625 C 12.953125 -3.054688 12.550781 -2.039062 11.75 -1.21875 C 10.957031 -0.40625 9.957031 0 8.75 0 C 7.539062 0 6.535156 -0.40625 5.734375 -1.21875 C 4.941406 -2.039062 4.546875 -3.054688 4.546875 -4.265625 L 4.546875 -33.1875 C 4.546875 -34.394531 4.941406 -35.40625 5.734375 -36.21875 C 6.535156 -37.039062 7.539062 -37.453125 8.75 -37.453125 C 9.957031 -37.453125 10.957031 -37.039062 11.75 -36.21875 C 12.550781 -35.40625 12.953125 -34.394531 12.953125 -33.1875 L 12.953125 -30.171875 L 11.90625 -30.375 C 12.320312 -31.164062 12.925781 -32.015625 13.71875 -32.921875 C 14.507812 -33.835938 15.441406 -34.691406 16.515625 -35.484375 C 17.585938 -36.285156 18.800781 -36.929688 20.15625 -37.421875 C 21.507812 -37.910156 22.976562 -38.15625 24.5625 -38.15625 Z M 24.5625 -38.15625 "/></g></g></g><g fill="#ffffff" fill-opacity="1"><g transform="translate(124.954274, 219.856656)"><g><path d="M 22.1875 0.703125 C 18.21875 0.703125 14.773438 -0.125 11.859375 -1.78125 C 8.941406 -3.4375 6.703125 -5.6875 5.140625 -8.53125 C 3.578125 -11.382812 2.796875 -14.609375 2.796875 -18.203125 C 2.796875 -22.398438 3.644531 -25.976562 5.34375 -28.9375 C 7.050781 -31.90625 9.28125 -34.179688 12.03125 -35.765625 C 14.789062 -37.359375 17.710938 -38.15625 20.796875 -38.15625 C 23.171875 -38.15625 25.421875 -37.660156 27.546875 -36.671875 C 29.671875 -35.691406 31.546875 -34.347656 33.171875 -32.640625 C 34.804688 -30.941406 36.101562 -28.972656 37.0625 -26.734375 C 38.019531 -24.492188 38.5 -22.113281 38.5 -19.59375 C 38.457031 -18.476562 38.015625 -17.566406 37.171875 -16.859375 C 36.328125 -16.160156 35.347656 -15.8125 34.234375 -15.8125 L 7.484375 -15.8125 L 5.390625 -22.8125 L 31.078125 -22.8125 L 29.546875 -21.421875 L 29.546875 -23.3125 C 29.453125 -24.664062 28.972656 -25.878906 28.109375 -26.953125 C 27.242188 -28.023438 26.164062 -28.875 24.875 -29.5 C 23.59375 -30.132812 22.234375 -30.453125 20.796875 -30.453125 C 19.390625 -30.453125 18.078125 -30.265625 16.859375 -29.890625 C 15.648438 -29.515625 14.601562 -28.882812 13.71875 -28 C 12.832031 -27.113281 12.128906 -25.921875 11.609375 -24.421875 C 11.097656 -22.929688 10.84375 -21.046875 10.84375 -18.765625 C 10.84375 -16.242188 11.367188 -14.109375 12.421875 -12.359375 C 13.472656 -10.609375 14.828125 -9.273438 16.484375 -8.359375 C 18.140625 -7.453125 19.898438 -7 21.765625 -7 C 23.492188 -7 24.867188 -7.140625 25.890625 -7.421875 C 26.921875 -7.703125 27.75 -8.039062 28.375 -8.4375 C 29.007812 -8.832031 29.582031 -9.171875 30.09375 -9.453125 C 30.9375 -9.867188 31.734375 -10.078125 32.484375 -10.078125 C 33.503906 -10.078125 34.351562 -9.726562 35.03125 -9.03125 C 35.707031 -8.332031 36.046875 -7.515625 36.046875 -6.578125 C 36.046875 -5.316406 35.394531 -4.175781 34.09375 -3.15625 C 32.875 -2.125 31.164062 -1.222656 28.96875 -0.453125 C 26.78125 0.316406 24.519531 0.703125 22.1875 0.703125 Z M 22.1875 0.703125 "/></g></g></g><g fill="#ffffff" fill-opacity="1"><g transform="translate(166.252016, 219.856656)"><g><path d="M 8.75 0 C 7.539062 0 6.535156 -0.40625 5.734375 -1.21875 C 4.941406 -2.039062 4.546875 -3.054688 4.546875 -4.265625 L 4.546875 -33.1875 C 4.546875 -34.394531 4.941406 -35.40625 5.734375 -36.21875 C 6.535156 -37.039062 7.539062 -37.453125 8.75 -37.453125 C 9.957031 -37.453125 10.957031 -37.039062 11.75 -36.21875 C 12.550781 -35.40625 12.953125 -34.394531 12.953125 -33.1875 L 12.953125 -26.59375 L 12.453125 -31.296875 C 12.972656 -32.410156 13.640625 -33.398438 14.453125 -34.265625 C 15.273438 -35.128906 16.195312 -35.851562 17.21875 -36.4375 C 18.25 -37.019531 19.347656 -37.453125 20.515625 -37.734375 C 21.679688 -38.015625 22.847656 -38.15625 24.015625 -38.15625 C 25.410156 -38.15625 26.585938 -37.753906 27.546875 -36.953125 C 28.503906 -36.160156 28.984375 -35.226562 28.984375 -34.15625 C 28.984375 -32.613281 28.582031 -31.503906 27.78125 -30.828125 C 26.988281 -30.148438 26.128906 -29.8125 25.203125 -29.8125 C 24.316406 -29.8125 23.507812 -29.972656 22.78125 -30.296875 C 22.0625 -30.628906 21.234375 -30.796875 20.296875 -30.796875 C 19.460938 -30.796875 18.613281 -30.597656 17.75 -30.203125 C 16.882812 -29.804688 16.085938 -29.1875 15.359375 -28.34375 C 14.640625 -27.507812 14.054688 -26.472656 13.609375 -25.234375 C 13.171875 -23.992188 12.953125 -22.535156 12.953125 -20.859375 L 12.953125 -4.265625 C 12.953125 -3.054688 12.550781 -2.039062 11.75 -1.21875 C 10.957031 -0.40625 9.957031 0 8.75 0 Z M 8.75 0 "/></g></g></g><g fill="#ffffff" fill-opacity="1"><g transform="translate(195.580395, 219.856656)"><g><path d="M 20.09375 -38.15625 C 22.050781 -38.15625 23.847656 -37.847656 25.484375 -37.234375 C 27.117188 -36.628906 28.53125 -35.859375 29.71875 -34.921875 C 30.90625 -33.992188 31.835938 -33.050781 32.515625 -32.09375 C 33.191406 -31.132812 33.53125 -30.332031 33.53125 -29.6875 L 31.703125 -28.765625 L 31.703125 -33.875 C 31.703125 -35.09375 32.097656 -36.109375 32.890625 -36.921875 C 33.691406 -37.742188 34.695312 -38.15625 35.90625 -38.15625 C 37.125 -38.15625 38.128906 -37.753906 38.921875 -36.953125 C 39.710938 -36.160156 40.109375 -35.132812 40.109375 -33.875 L 40.109375 -2.734375 C 40.109375 1.328125 39.234375 4.582031 37.484375 7.03125 C 35.734375 9.476562 33.429688 11.25 30.578125 12.34375 C 27.734375 13.445312 24.679688 14 21.421875 14 C 20.484375 14 19.269531 13.878906 17.78125 13.640625 C 16.289062 13.410156 14.867188 13.128906 13.515625 12.796875 C 12.160156 12.472656 11.132812 12.175781 10.4375 11.90625 C 9.03125 11.289062 8.054688 10.53125 7.515625 9.625 C 6.984375 8.71875 6.878906 7.75 7.203125 6.71875 C 7.628906 5.363281 8.304688 4.441406 9.234375 3.953125 C 10.171875 3.460938 11.15625 3.40625 12.1875 3.78125 C 12.644531 3.914062 13.410156 4.191406 14.484375 4.609375 C 15.554688 5.035156 16.734375 5.421875 18.015625 5.765625 C 19.304688 6.117188 20.441406 6.296875 21.421875 6.296875 C 24.921875 6.296875 27.507812 5.59375 29.1875 4.1875 C 30.863281 2.789062 31.703125 0.859375 31.703125 -1.609375 L 31.703125 -7.703125 L 32.546875 -7.0625 C 32.546875 -6.457031 32.226562 -5.722656 31.59375 -4.859375 C 30.96875 -3.992188 30.109375 -3.140625 29.015625 -2.296875 C 27.921875 -1.460938 26.625 -0.753906 25.125 -0.171875 C 23.632812 0.410156 22.050781 0.703125 20.375 0.703125 C 17.0625 0.703125 14.070312 -0.125 11.40625 -1.78125 C 8.75 -3.4375 6.648438 -5.722656 5.109375 -8.640625 C 3.566406 -11.554688 2.796875 -14.90625 2.796875 -18.6875 C 2.796875 -22.519531 3.566406 -25.894531 5.109375 -28.8125 C 6.648438 -31.726562 8.726562 -34.015625 11.34375 -35.671875 C 13.957031 -37.328125 16.875 -38.15625 20.09375 -38.15625 Z M 21.421875 -30.453125 C 19.316406 -30.453125 17.472656 -29.9375 15.890625 -28.90625 C 14.304688 -27.882812 13.066406 -26.484375 12.171875 -24.703125 C 11.285156 -22.929688 10.84375 -20.925781 10.84375 -18.6875 C 10.84375 -16.5 11.285156 -14.515625 12.171875 -12.734375 C 13.066406 -10.960938 14.304688 -9.5625 15.890625 -8.53125 C 17.472656 -7.507812 19.316406 -7 21.421875 -7 C 23.566406 -7 25.429688 -7.507812 27.015625 -8.53125 C 28.609375 -9.5625 29.847656 -10.960938 30.734375 -12.734375 C 31.617188 -14.515625 32.0625 -16.5 32.0625 -18.6875 C 32.0625 -20.925781 31.617188 -22.929688 30.734375 -24.703125 C 29.847656 -26.484375 28.609375 -27.882812 27.015625 -28.90625 C 25.429688 -29.9375 23.566406 -30.453125 21.421875 -30.453125 Z M 21.421875 -30.453125 "/></g></g></g><g fill="#ffffff" fill-opacity="1"><g transform="translate(240.23795, 219.856656)"><g><path d="M 12.453125 -4.265625 C 12.453125 -3.054688 12.054688 -2.039062 11.265625 -1.21875 C 10.472656 -0.40625 9.472656 0 8.265625 0 C 7.046875 0 6.039062 -0.40625 5.25 -1.21875 C 4.457031 -2.039062 4.0625 -3.054688 4.0625 -4.265625 L 4.0625 -33.1875 C 4.0625 -34.394531 4.457031 -35.40625 5.25 -36.21875 C 6.039062 -37.039062 7.046875 -37.453125 8.265625 -37.453125 C 9.472656 -37.453125 10.472656 -37.039062 11.265625 -36.21875 C 12.054688 -35.40625 12.453125 -34.394531 12.453125 -33.1875 Z M 8.1875 -42 C 6.59375 -42 5.46875 -42.253906 4.8125 -42.765625 C 4.164062 -43.285156 3.84375 -44.195312 3.84375 -45.5 L 3.84375 -46.828125 C 3.84375 -48.179688 4.203125 -49.101562 4.921875 -49.59375 C 5.648438 -50.082031 6.757812 -50.328125 8.25 -50.328125 C 9.882812 -50.328125 11.023438 -50.070312 11.671875 -49.5625 C 12.328125 -49.050781 12.65625 -48.140625 12.65625 -46.828125 L 12.65625 -45.5 C 12.65625 -44.144531 12.304688 -43.222656 11.609375 -42.734375 C 10.910156 -42.242188 9.769531 -42 8.1875 -42 Z M 8.1875 -42 "/></g></g></g><g fill="#ffffff" fill-opacity="1"><g transform="translate(256.75706, 219.856656)"><g><path d="M 22.1875 0.703125 C 18.21875 0.703125 14.773438 -0.125 11.859375 -1.78125 C 8.941406 -3.4375 6.703125 -5.6875 5.140625 -8.53125 C 3.578125 -11.382812 2.796875 -14.609375 2.796875 -18.203125 C 2.796875 -22.398438 3.644531 -25.976562 5.34375 -28.9375 C 7.050781 -31.90625 9.28125 -34.179688 12.03125 -35.765625 C 14.789062 -37.359375 17.710938 -38.15625 20.796875 -38.15625 C 23.171875 -38.15625 25.421875 -37.660156 27.546875 -36.671875 C 29.671875 -35.691406 31.546875 -34.347656 33.171875 -32.640625 C 34.804688 -30.941406 36.101562 -28.972656 37.0625 -26.734375 C 38.019531 -24.492188 38.5 -22.113281 38.5 -19.59375 C 38.457031 -18.476562 38.015625 -17.566406 37.171875 -16.859375 C 36.328125 -16.160156 35.347656 -15.8125 34.234375 -15.8125 L 7.484375 -15.8125 L 5.390625 -22.8125 L 31.078125 -22.8125 L 29.546875 -21.421875 L 29.546875 -23.3125 C 29.453125 -24.664062 28.972656 -25.878906 28.109375 -26.953125 C 27.242188 -28.023438 26.164062 -28.875 24.875 -29.5 C 23.59375 -30.132812 22.234375 -30.453125 20.796875 -30.453125 C 19.390625 -30.453125 18.078125 -30.265625 16.859375 -29.890625 C 15.648438 -29.515625 14.601562 -28.882812 13.71875 -28 C 12.832031 -27.113281 12.128906 -25.921875 11.609375 -24.421875 C 11.097656 -22.929688 10.84375 -21.046875 10.84375 -18.765625 C 10.84375 -16.242188 11.367188 -14.109375 12.421875 -12.359375 C 13.472656 -10.609375 14.828125 -9.273438 16.484375 -8.359375 C 18.140625 -7.453125 19.898438 -7 21.765625 -7 C 23.492188 -7 24.867188 -7.140625 25.890625 -7.421875 C 26.921875 -7.703125 27.75 -8.039062 28.375 -8.4375 C 29.007812 -8.832031 29.582031 -9.171875 30.09375 -9.453125 C 30.9375 -9.867188 31.734375 -10.078125 32.484375 -10.078125 C 33.503906 -10.078125 34.351562 -9.726562 35.03125 -9.03125 C 35.707031 -8.332031 36.046875 -7.515625 36.046875 -6.578125 C 36.046875 -5.316406 35.394531 -4.175781 34.09375 -3.15625 C 32.875 -2.125 31.164062 -1.222656 28.96875 -0.453125 C 26.78125 0.316406 24.519531 0.703125 22.1875 0.703125 Z M 22.1875 0.703125 "/></g></g></g><g fill="#ffffff" fill-opacity="1"><g transform="translate(298.054803, 219.856656)"><g><path d="M 2.375 -5.8125 C 1.914062 -6.46875 1.707031 -7.304688 1.75 -8.328125 C 1.789062 -9.359375 2.394531 -10.242188 3.5625 -10.984375 C 4.3125 -11.453125 5.101562 -11.648438 5.9375 -11.578125 C 6.78125 -11.515625 7.601562 -11.085938 8.40625 -10.296875 C 9.757812 -8.941406 11.179688 -7.890625 12.671875 -7.140625 C 14.160156 -6.390625 16.023438 -6.015625 18.265625 -6.015625 C 18.960938 -6.066406 19.734375 -6.171875 20.578125 -6.328125 C 21.421875 -6.492188 22.15625 -6.867188 22.78125 -7.453125 C 23.414062 -8.035156 23.734375 -8.9375 23.734375 -10.15625 C 23.734375 -11.175781 23.378906 -11.988281 22.671875 -12.59375 C 21.972656 -13.207031 21.050781 -13.722656 19.90625 -14.140625 C 18.769531 -14.554688 17.5 -14.953125 16.09375 -15.328125 C 14.65625 -15.742188 13.175781 -16.207031 11.65625 -16.71875 C 10.132812 -17.238281 8.742188 -17.90625 7.484375 -18.71875 C 6.222656 -19.539062 5.195312 -20.628906 4.40625 -21.984375 C 3.613281 -23.335938 3.21875 -25.039062 3.21875 -27.09375 C 3.21875 -29.425781 3.867188 -31.40625 5.171875 -33.03125 C 6.484375 -34.664062 8.175781 -35.925781 10.25 -36.8125 C 12.332031 -37.707031 14.515625 -38.15625 16.796875 -38.15625 C 18.242188 -38.15625 19.757812 -37.976562 21.34375 -37.625 C 22.9375 -37.269531 24.453125 -36.707031 25.890625 -35.9375 C 27.335938 -35.175781 28.554688 -34.164062 29.546875 -32.90625 C 30.054688 -32.195312 30.359375 -31.351562 30.453125 -30.375 C 30.546875 -29.394531 30.101562 -28.507812 29.125 -27.71875 C 28.414062 -27.15625 27.59375 -26.910156 26.65625 -26.984375 C 25.726562 -27.054688 24.960938 -27.375 24.359375 -27.9375 C 23.566406 -28.957031 22.503906 -29.769531 21.171875 -30.375 C 19.847656 -30.988281 18.320312 -31.296875 16.59375 -31.296875 C 15.894531 -31.296875 15.132812 -31.210938 14.3125 -31.046875 C 13.5 -30.878906 12.785156 -30.523438 12.171875 -29.984375 C 11.566406 -29.453125 11.265625 -28.601562 11.265625 -27.4375 C 11.265625 -26.363281 11.613281 -25.507812 12.3125 -24.875 C 13.019531 -24.25 13.96875 -23.738281 15.15625 -23.34375 C 16.34375 -22.945312 17.613281 -22.5625 18.96875 -22.1875 C 20.363281 -21.8125 21.785156 -21.367188 23.234375 -20.859375 C 24.679688 -20.347656 26.007812 -19.671875 27.21875 -18.828125 C 28.4375 -17.984375 29.421875 -16.894531 30.171875 -15.5625 C 30.921875 -14.238281 31.296875 -12.550781 31.296875 -10.5 C 31.296875 -8.125 30.59375 -6.09375 29.1875 -4.40625 C 27.789062 -2.726562 26.039062 -1.457031 23.9375 -0.59375 C 21.84375 0.269531 19.695312 0.703125 17.5 0.703125 C 14.75 0.703125 11.992188 0.222656 9.234375 -0.734375 C 6.484375 -1.691406 4.195312 -3.382812 2.375 -5.8125 Z M 2.375 -5.8125 "/></g></g></g><g fill="#ffffff" fill-opacity="1"><g transform="translate(56.771486, 272.993185)"><g><path d="M 12.5 -2.578125 C 12.382812 -2.578125 12.257812 -2.601562 12.125 -2.65625 C 11.988281 -2.71875 11.863281 -2.78125 11.75 -2.84375 L 1.5625 -8.640625 C 1.332031 -8.773438 1.171875 -8.925781 1.078125 -9.09375 C 0.992188 -9.257812 0.953125 -9.445312 0.953125 -9.65625 C 0.953125 -9.882812 1.015625 -10.082031 1.140625 -10.25 C 1.265625 -10.414062 1.4375 -10.554688 1.65625 -10.671875 L 11.65625 -16.359375 C 11.769531 -16.410156 11.882812 -16.460938 12 -16.515625 C 12.125 -16.566406 12.234375 -16.59375 12.328125 -16.59375 C 12.578125 -16.601562 12.785156 -16.519531 12.953125 -16.34375 C 13.128906 -16.175781 13.21875 -15.976562 13.21875 -15.75 C 13.21875 -15.550781 13.175781 -15.394531 13.09375 -15.28125 C 13.007812 -15.164062 12.878906 -15.0625 12.703125 -14.96875 L 2.5 -9.21875 L 2.4375 -10.03125 L 12.59375 -4.296875 C 12.851562 -4.160156 13.03125 -4.03125 13.125 -3.90625 C 13.226562 -3.78125 13.28125 -3.617188 13.28125 -3.421875 C 13.28125 -3.210938 13.195312 -3.019531 13.03125 -2.84375 C 12.863281 -2.664062 12.6875 -2.578125 12.5 -2.578125 Z M 12.5 -2.578125 "/></g></g></g><g fill="#ffffff" fill-opacity="1"><g transform="translate(71.934392, 272.993185)"><g><path d="M 8.984375 0.296875 C 7.492188 0.296875 6.175781 -0.0195312 5.03125 -0.65625 C 3.894531 -1.300781 3.007812 -2.191406 2.375 -3.328125 C 1.738281 -4.472656 1.421875 -5.8125 1.421875 -7.34375 C 1.421875 -8.976562 1.742188 -10.375 2.390625 -11.53125 C 3.035156 -12.695312 3.875 -13.59375 4.90625 -14.21875 C 5.945312 -14.851562 7.046875 -15.171875 8.203125 -15.171875 C 9.054688 -15.171875 9.882812 -15.019531 10.6875 -14.71875 C 11.488281 -14.414062 12.203125 -13.96875 12.828125 -13.375 C 13.460938 -12.789062 13.96875 -12.070312 14.34375 -11.21875 C 14.71875 -10.375 14.925781 -9.390625 14.96875 -8.265625 C 14.945312 -8.035156 14.847656 -7.835938 14.671875 -7.671875 C 14.492188 -7.503906 14.289062 -7.421875 14.0625 -7.421875 L 2.4375 -7.421875 L 2.09375 -8.984375 L 13.515625 -8.984375 L 13.140625 -8.640625 L 13.140625 -9.21875 C 13.054688 -10.125 12.765625 -10.894531 12.265625 -11.53125 C 11.765625 -12.175781 11.15625 -12.660156 10.4375 -12.984375 C 9.71875 -13.316406 8.972656 -13.484375 8.203125 -13.484375 C 7.628906 -13.484375 7.035156 -13.363281 6.421875 -13.125 C 5.816406 -12.894531 5.265625 -12.535156 4.765625 -12.046875 C 4.273438 -11.554688 3.875 -10.925781 3.5625 -10.15625 C 3.257812 -9.394531 3.109375 -8.492188 3.109375 -7.453125 C 3.109375 -6.304688 3.335938 -5.269531 3.796875 -4.34375 C 4.265625 -3.414062 4.9375 -2.679688 5.8125 -2.140625 C 6.695312 -1.597656 7.75 -1.328125 8.96875 -1.328125 C 9.632812 -1.328125 10.238281 -1.421875 10.78125 -1.609375 C 11.320312 -1.804688 11.796875 -2.066406 12.203125 -2.390625 C 12.609375 -2.710938 12.945312 -3.046875 13.21875 -3.390625 C 13.4375 -3.566406 13.648438 -3.65625 13.859375 -3.65625 C 14.054688 -3.65625 14.226562 -3.578125 14.375 -3.421875 C 14.519531 -3.265625 14.59375 -3.09375 14.59375 -2.90625 C 14.59375 -2.664062 14.492188 -2.460938 14.296875 -2.296875 C 13.710938 -1.597656 12.957031 -0.988281 12.03125 -0.46875 C 11.101562 0.0390625 10.085938 0.296875 8.984375 0.296875 Z M 8.984375 0.296875 "/></g></g></g><g fill="#ffffff" fill-opacity="1"><g transform="translate(88.314972, 272.993185)"><g><path d="M 9.28125 -15.171875 C 10.550781 -15.171875 11.566406 -14.910156 12.328125 -14.390625 C 13.097656 -13.878906 13.648438 -13.179688 13.984375 -12.296875 C 14.328125 -11.421875 14.5 -10.453125 14.5 -9.390625 L 14.5 -0.875 C 14.5 -0.632812 14.410156 -0.425781 14.234375 -0.25 C 14.066406 -0.0820312 13.863281 0 13.625 0 C 13.351562 0 13.140625 -0.0820312 12.984375 -0.25 C 12.835938 -0.425781 12.765625 -0.632812 12.765625 -0.875 L 12.765625 -9.3125 C 12.765625 -10.082031 12.632812 -10.785156 12.375 -11.421875 C 12.125 -12.066406 11.710938 -12.582031 11.140625 -12.96875 C 10.578125 -13.351562 9.832031 -13.546875 8.90625 -13.546875 C 8.070312 -13.546875 7.28125 -13.351562 6.53125 -12.96875 C 5.789062 -12.582031 5.1875 -12.066406 4.71875 -11.421875 C 4.257812 -10.785156 4.03125 -10.082031 4.03125 -9.3125 L 4.03125 -0.875 C 4.03125 -0.632812 3.941406 -0.425781 3.765625 -0.25 C 3.597656 -0.0820312 3.394531 0 3.15625 0 C 2.882812 0 2.671875 -0.0820312 2.515625 -0.25 C 2.367188 -0.425781 2.296875 -0.632812 2.296875 -0.875 L 2.296875 -13.859375 C 2.296875 -14.085938 2.375 -14.289062 2.53125 -14.46875 C 2.695312 -14.644531 2.90625 -14.734375 3.15625 -14.734375 C 3.40625 -14.734375 3.613281 -14.644531 3.78125 -14.46875 C 3.945312 -14.289062 4.03125 -14.085938 4.03125 -13.859375 L 4.03125 -11.421875 L 3.359375 -10.375 C 3.398438 -11 3.597656 -11.59375 3.953125 -12.15625 C 4.316406 -12.726562 4.773438 -13.242188 5.328125 -13.703125 C 5.890625 -14.160156 6.515625 -14.519531 7.203125 -14.78125 C 7.890625 -15.039062 8.582031 -15.171875 9.28125 -15.171875 Z M 9.28125 -15.171875 "/></g></g></g><g fill="#ffffff" fill-opacity="1"><g transform="translate(105.072451, 272.993185)"><g><path d="M 8.984375 0.296875 C 7.492188 0.296875 6.175781 -0.0195312 5.03125 -0.65625 C 3.894531 -1.300781 3.007812 -2.191406 2.375 -3.328125 C 1.738281 -4.472656 1.421875 -5.8125 1.421875 -7.34375 C 1.421875 -8.976562 1.742188 -10.375 2.390625 -11.53125 C 3.035156 -12.695312 3.875 -13.59375 4.90625 -14.21875 C 5.945312 -14.851562 7.046875 -15.171875 8.203125 -15.171875 C 9.054688 -15.171875 9.882812 -15.019531 10.6875 -14.71875 C 11.488281 -14.414062 12.203125 -13.96875 12.828125 -13.375 C 13.460938 -12.789062 13.96875 -12.070312 14.34375 -11.21875 C 14.71875 -10.375 14.925781 -9.390625 14.96875 -8.265625 C 14.945312 -8.035156 14.847656 -7.835938 14.671875 -7.671875 C 14.492188 -7.503906 14.289062 -7.421875 14.0625 -7.421875 L 2.4375 -7.421875 L 2.09375 -8.984375 L 13.515625 -8.984375 L 13.140625 -8.640625 L 13.140625 -9.21875 C 13.054688 -10.125 12.765625 -10.894531 12.265625 -11.53125 C 11.765625 -12.175781 11.15625 -12.660156 10.4375 -12.984375 C 9.71875 -13.316406 8.972656 -13.484375 8.203125 -13.484375 C 7.628906 -13.484375 7.035156 -13.363281 6.421875 -13.125 C 5.816406 -12.894531 5.265625 -12.535156 4.765625 -12.046875 C 4.273438 -11.554688 3.875 -10.925781 3.5625 -10.15625 C 3.257812 -9.394531 3.109375 -8.492188 3.109375 -7.453125 C 3.109375 -6.304688 3.335938 -5.269531 3.796875 -4.34375 C 4.265625 -3.414062 4.9375 -2.679688 5.8125 -2.140625 C 6.695312 -1.597656 7.75 -1.328125 8.96875 -1.328125 C 9.632812 -1.328125 10.238281 -1.421875 10.78125 -1.609375 C 11.320312 -1.804688 11.796875 -2.066406 12.203125 -2.390625 C 12.609375 -2.710938 12.945312 -3.046875 13.21875 -3.390625 C 13.4375 -3.566406 13.648438 -3.65625 13.859375 -3.65625 C 14.054688 -3.65625 14.226562 -3.578125 14.375 -3.421875 C 14.519531 -3.265625 14.59375 -3.09375 14.59375 -2.90625 C 14.59375 -2.664062 14.492188 -2.460938 14.296875 -2.296875 C 13.710938 -1.597656 12.957031 -0.988281 12.03125 -0.46875 C 11.101562 0.0390625 10.085938 0.296875 8.984375 0.296875 Z M 8.984375 0.296875 "/></g></g></g><g fill="#ffffff" fill-opacity="1"><g transform="translate(121.453031, 272.993185)"><g><path d="M 3.15625 0 C 2.882812 0 2.671875 -0.0820312 2.515625 -0.25 C 2.367188 -0.425781 2.296875 -0.632812 2.296875 -0.875 L 2.296875 -13.859375 C 2.296875 -14.085938 2.375 -14.289062 2.53125 -14.46875 C 2.695312 -14.644531 2.90625 -14.734375 3.15625 -14.734375 C 3.40625 -14.734375 3.613281 -14.644531 3.78125 -14.46875 C 3.945312 -14.289062 4.03125 -14.085938 4.03125 -13.859375 L 4.03125 -9.515625 L 3.59375 -9.421875 C 3.65625 -10.097656 3.828125 -10.769531 4.109375 -11.4375 C 4.390625 -12.101562 4.769531 -12.71875 5.25 -13.28125 C 5.726562 -13.84375 6.300781 -14.296875 6.96875 -14.640625 C 7.632812 -14.992188 8.382812 -15.171875 9.21875 -15.171875 C 9.570312 -15.171875 9.910156 -15.097656 10.234375 -14.953125 C 10.566406 -14.804688 10.734375 -14.566406 10.734375 -14.234375 C 10.734375 -13.941406 10.65625 -13.71875 10.5 -13.5625 C 10.34375 -13.414062 10.160156 -13.34375 9.953125 -13.34375 C 9.773438 -13.34375 9.582031 -13.390625 9.375 -13.484375 C 9.175781 -13.578125 8.910156 -13.625 8.578125 -13.625 C 8.035156 -13.625 7.492188 -13.460938 6.953125 -13.140625 C 6.410156 -12.828125 5.914062 -12.398438 5.46875 -11.859375 C 5.03125 -11.316406 4.679688 -10.710938 4.421875 -10.046875 C 4.160156 -9.378906 4.03125 -8.707031 4.03125 -8.03125 L 4.03125 -0.875 C 4.03125 -0.632812 3.941406 -0.425781 3.765625 -0.25 C 3.597656 -0.0820312 3.394531 0 3.15625 0 Z M 3.15625 0 "/></g></g></g><g fill="#ffffff" fill-opacity="1"><g transform="translate(132.180093, 272.993185)"><g><path d="M 8.46875 -15.171875 C 9.332031 -15.171875 10.132812 -15.019531 10.875 -14.71875 C 11.613281 -14.414062 12.253906 -14.023438 12.796875 -13.546875 C 13.347656 -13.078125 13.78125 -12.578125 14.09375 -12.046875 C 14.40625 -11.515625 14.5625 -11.007812 14.5625 -10.53125 L 14.0625 -11.21875 L 14.0625 -13.921875 C 14.0625 -14.171875 14.144531 -14.378906 14.3125 -14.546875 C 14.476562 -14.722656 14.6875 -14.8125 14.9375 -14.8125 C 15.207031 -14.8125 15.421875 -14.722656 15.578125 -14.546875 C 15.734375 -14.378906 15.8125 -14.171875 15.8125 -13.921875 L 15.8125 -1.359375 C 15.8125 0.179688 15.488281 1.484375 14.84375 2.546875 C 14.207031 3.609375 13.34375 4.414062 12.25 4.96875 C 11.15625 5.519531 9.914062 5.796875 8.53125 5.796875 C 7.851562 5.796875 7.140625 5.707031 6.390625 5.53125 C 5.648438 5.363281 5.015625 5.144531 4.484375 4.875 C 3.953125 4.601562 3.65625 4.320312 3.59375 4.03125 C 3.4375 3.851562 3.363281 3.679688 3.375 3.515625 C 3.382812 3.359375 3.46875 3.222656 3.625 3.109375 C 3.820312 2.972656 4.023438 2.957031 4.234375 3.0625 C 4.441406 3.164062 4.757812 3.304688 5.1875 3.484375 C 5.382812 3.535156 5.644531 3.617188 5.96875 3.734375 C 6.300781 3.859375 6.691406 3.960938 7.140625 4.046875 C 7.597656 4.128906 8.078125 4.171875 8.578125 4.171875 C 10.316406 4.171875 11.664062 3.671875 12.625 2.671875 C 13.582031 1.679688 14.0625 0.375 14.0625 -1.25 L 14.0625 -4.03125 L 14.390625 -3.9375 C 14.210938 -3.25 13.925781 -2.640625 13.53125 -2.109375 C 13.132812 -1.585938 12.664062 -1.148438 12.125 -0.796875 C 11.582031 -0.441406 10.992188 -0.171875 10.359375 0.015625 C 9.734375 0.203125 9.113281 0.296875 8.5 0.296875 C 7.164062 0.296875 5.96875 -0.0390625 4.90625 -0.71875 C 3.84375 -1.394531 2.992188 -2.3125 2.359375 -3.46875 C 1.734375 -4.632812 1.421875 -5.960938 1.421875 -7.453125 C 1.421875 -8.921875 1.734375 -10.238281 2.359375 -11.40625 C 2.992188 -12.582031 3.835938 -13.503906 4.890625 -14.171875 C 5.941406 -14.835938 7.132812 -15.171875 8.46875 -15.171875 Z M 8.671875 -13.546875 C 7.609375 -13.546875 6.65625 -13.28125 5.8125 -12.75 C 4.96875 -12.21875 4.304688 -11.488281 3.828125 -10.5625 C 3.359375 -9.644531 3.125 -8.609375 3.125 -7.453125 C 3.125 -6.296875 3.359375 -5.25 3.828125 -4.3125 C 4.304688 -3.382812 4.96875 -2.65625 5.8125 -2.125 C 6.65625 -1.59375 7.609375 -1.328125 8.671875 -1.328125 C 9.734375 -1.328125 10.679688 -1.585938 11.515625 -2.109375 C 12.347656 -2.640625 13.003906 -3.363281 13.484375 -4.28125 C 13.960938 -5.195312 14.203125 -6.253906 14.203125 -7.453125 C 14.203125 -8.648438 13.960938 -9.707031 13.484375 -10.625 C 13.003906 -11.539062 12.347656 -12.253906 11.515625 -12.765625 C 10.679688 -13.285156 9.734375 -13.546875 8.671875 -13.546875 Z M 8.671875 -13.546875 "/></g></g></g><g fill="#ffffff" fill-opacity="1"><g transform="translate(150.271209, 272.993185)"><g><path d="M 13.34375 -15.078125 C 13.59375 -15.078125 13.796875 -14.988281 13.953125 -14.8125 C 14.117188 -14.644531 14.203125 -14.441406 14.203125 -14.203125 L 14.203125 -1.421875 C 14.203125 0.140625 13.894531 1.457031 13.28125 2.53125 C 12.664062 3.601562 11.832031 4.414062 10.78125 4.96875 C 9.738281 5.519531 8.550781 5.796875 7.21875 5.796875 C 6.382812 5.796875 5.613281 5.703125 4.90625 5.515625 C 4.207031 5.335938 3.632812 5.101562 3.1875 4.8125 C 2.957031 4.675781 2.785156 4.507812 2.671875 4.3125 C 2.554688 4.125 2.546875 3.925781 2.640625 3.71875 C 2.734375 3.445312 2.878906 3.265625 3.078125 3.171875 C 3.285156 3.085938 3.5 3.09375 3.71875 3.1875 C 4.039062 3.363281 4.507812 3.578125 5.125 3.828125 C 5.75 4.078125 6.457031 4.203125 7.25 4.203125 C 8.3125 4.203125 9.234375 3.976562 10.015625 3.53125 C 10.796875 3.09375 11.398438 2.453125 11.828125 1.609375 C 12.253906 0.765625 12.46875 -0.234375 12.46875 -1.390625 L 12.46875 -3.484375 L 12.671875 -2.78125 C 12.378906 -2.1875 11.96875 -1.65625 11.4375 -1.1875 C 10.90625 -0.726562 10.296875 -0.363281 9.609375 -0.09375 C 8.921875 0.164062 8.191406 0.296875 7.421875 0.296875 C 6.265625 0.296875 5.300781 0.0625 4.53125 -0.40625 C 3.769531 -0.882812 3.207031 -1.539062 2.84375 -2.375 C 2.476562 -3.207031 2.296875 -4.1875 2.296875 -5.3125 L 2.296875 -14.203125 C 2.296875 -14.441406 2.367188 -14.644531 2.515625 -14.8125 C 2.671875 -14.988281 2.882812 -15.078125 3.15625 -15.078125 C 3.40625 -15.078125 3.613281 -14.988281 3.78125 -14.8125 C 3.945312 -14.644531 4.03125 -14.441406 4.03125 -14.203125 L 4.03125 -5.5625 C 4.03125 -4.207031 4.320312 -3.160156 4.90625 -2.421875 C 5.5 -1.691406 6.460938 -1.328125 7.796875 -1.328125 C 8.628906 -1.328125 9.394531 -1.523438 10.09375 -1.921875 C 10.789062 -2.316406 11.359375 -2.835938 11.796875 -3.484375 C 12.242188 -4.140625 12.46875 -4.832031 12.46875 -5.5625 L 12.46875 -14.203125 C 12.46875 -14.441406 12.550781 -14.644531 12.71875 -14.8125 C 12.882812 -14.988281 13.09375 -15.078125 13.34375 -15.078125 Z M 13.34375 -15.078125 "/></g></g></g><g fill="#ffffff" fill-opacity="1"><g transform="translate(166.738764, 272.993185)"><g/></g></g><g fill="#ffffff" fill-opacity="1"><g transform="translate(174.653623, 272.993185)"><g><path d="M 3.15625 0 C 2.882812 0 2.671875 -0.0820312 2.515625 -0.25 C 2.367188 -0.425781 2.296875 -0.632812 2.296875 -0.875 L 2.296875 -13.859375 C 2.296875 -14.085938 2.375 -14.289062 2.53125 -14.46875 C 2.695312 -14.644531 2.90625 -14.734375 3.15625 -14.734375 C 3.40625 -14.734375 3.613281 -14.644531 3.78125 -14.46875 C 3.945312 -14.289062 4.03125 -14.085938 4.03125 -13.859375 L 4.03125 -9.515625 L 3.59375 -9.421875 C 3.65625 -10.097656 3.828125 -10.769531 4.109375 -11.4375 C 4.390625 -12.101562 4.769531 -12.71875 5.25 -13.28125 C 5.726562 -13.84375 6.300781 -14.296875 6.96875 -14.640625 C 7.632812 -14.992188 8.382812 -15.171875 9.21875 -15.171875 C 9.570312 -15.171875 9.910156 -15.097656 10.234375 -14.953125 C 10.566406 -14.804688 10.734375 -14.566406 10.734375 -14.234375 C 10.734375 -13.941406 10.65625 -13.71875 10.5 -13.5625 C 10.34375 -13.414062 10.160156 -13.34375 9.953125 -13.34375 C 9.773438 -13.34375 9.582031 -13.390625 9.375 -13.484375 C 9.175781 -13.578125 8.910156 -13.625 8.578125 -13.625 C 8.035156 -13.625 7.492188 -13.460938 6.953125 -13.140625 C 6.410156 -12.828125 5.914062 -12.398438 5.46875 -11.859375 C 5.03125 -11.316406 4.679688 -10.710938 4.421875 -10.046875 C 4.160156 -9.378906 4.03125 -8.707031 4.03125 -8.03125 L 4.03125 -0.875 C 4.03125 -0.632812 3.941406 -0.425781 3.765625 -0.25 C 3.597656 -0.0820312 3.394531 0 3.15625 0 Z M 3.15625 0 "/></g></g></g><g fill="#ffffff" fill-opacity="1"><g transform="translate(185.177712, 272.993185)"><g><path d="M 8.984375 0.296875 C 7.492188 0.296875 6.175781 -0.0195312 5.03125 -0.65625 C 3.894531 -1.300781 3.007812 -2.191406 2.375 -3.328125 C 1.738281 -4.472656 1.421875 -5.8125 1.421875 -7.34375 C 1.421875 -8.976562 1.742188 -10.375 2.390625 -11.53125 C 3.035156 -12.695312 3.875 -13.59375 4.90625 -14.21875 C 5.945312 -14.851562 7.046875 -15.171875 8.203125 -15.171875 C 9.054688 -15.171875 9.882812 -15.019531 10.6875 -14.71875 C 11.488281 -14.414062 12.203125 -13.96875 12.828125 -13.375 C 13.460938 -12.789062 13.96875 -12.070312 14.34375 -11.21875 C 14.71875 -10.375 14.925781 -9.390625 14.96875 -8.265625 C 14.945312 -8.035156 14.847656 -7.835938 14.671875 -7.671875 C 14.492188 -7.503906 14.289062 -7.421875 14.0625 -7.421875 L 2.4375 -7.421875 L 2.09375 -8.984375 L 13.515625 -8.984375 L 13.140625 -8.640625 L 13.140625 -9.21875 C 13.054688 -10.125 12.765625 -10.894531 12.265625 -11.53125 C 11.765625 -12.175781 11.15625 -12.660156 10.4375 -12.984375 C 9.71875 -13.316406 8.972656 -13.484375 8.203125 -13.484375 C 7.628906 -13.484375 7.035156 -13.363281 6.421875 -13.125 C 5.816406 -12.894531 5.265625 -12.535156 4.765625 -12.046875 C 4.273438 -11.554688 3.875 -10.925781 3.5625 -10.15625 C 3.257812 -9.394531 3.109375 -8.492188 3.109375 -7.453125 C 3.109375 -6.304688 3.335938 -5.269531 3.796875 -4.34375 C 4.265625 -3.414062 4.9375 -2.679688 5.8125 -2.140625 C 6.695312 -1.597656 7.75 -1.328125 8.96875 -1.328125 C 9.632812 -1.328125 10.238281 -1.421875 10.78125 -1.609375 C 11.320312 -1.804688 11.796875 -2.066406 12.203125 -2.390625 C 12.609375 -2.710938 12.945312 -3.046875 13.21875 -3.390625 C 13.4375 -3.566406 13.648438 -3.65625 13.859375 -3.65625 C 14.054688 -3.65625 14.226562 -3.578125 14.375 -3.421875 C 14.519531 -3.265625 14.59375 -3.09375 14.59375 -2.90625 C 14.59375 -2.664062 14.492188 -2.460938 14.296875 -2.296875 C 13.710938 -1.597656 12.957031 -0.988281 12.03125 -0.46875 C 11.101562 0.0390625 10.085938 0.296875 8.984375 0.296875 Z M 8.984375 0.296875 "/></g></g></g><g fill="#ffffff" fill-opacity="1"><g transform="translate(201.558292, 272.993185)"><g><path d="M 14.4375 -21.453125 C 14.6875 -21.453125 14.894531 -21.367188 15.0625 -21.203125 C 15.226562 -21.046875 15.3125 -20.84375 15.3125 -20.59375 L 15.3125 -0.875 C 15.3125 -0.632812 15.222656 -0.425781 15.046875 -0.25 C 14.878906 -0.0820312 14.675781 0 14.4375 0 C 14.1875 0 13.976562 -0.0820312 13.8125 -0.25 C 13.65625 -0.425781 13.578125 -0.632812 13.578125 -0.875 L 13.578125 -4.328125 L 14.0625 -4.734375 C 14.0625 -4.191406 13.914062 -3.625 13.625 -3.03125 C 13.332031 -2.4375 12.921875 -1.890625 12.390625 -1.390625 C 11.859375 -0.890625 11.238281 -0.484375 10.53125 -0.171875 C 9.832031 0.140625 9.078125 0.296875 8.265625 0.296875 C 6.972656 0.296875 5.804688 -0.0390625 4.765625 -0.71875 C 3.734375 -1.394531 2.914062 -2.3125 2.3125 -3.46875 C 1.71875 -4.632812 1.421875 -5.960938 1.421875 -7.453125 C 1.421875 -8.921875 1.71875 -10.238281 2.3125 -11.40625 C 2.914062 -12.582031 3.726562 -13.503906 4.75 -14.171875 C 5.78125 -14.835938 6.941406 -15.171875 8.234375 -15.171875 C 9.023438 -15.171875 9.78125 -15.023438 10.5 -14.734375 C 11.21875 -14.441406 11.847656 -14.039062 12.390625 -13.53125 C 12.941406 -13.03125 13.378906 -12.457031 13.703125 -11.8125 C 14.023438 -11.164062 14.1875 -10.492188 14.1875 -9.796875 L 13.578125 -10.234375 L 13.578125 -20.59375 C 13.578125 -20.820312 13.65625 -21.019531 13.8125 -21.1875 C 13.976562 -21.363281 14.1875 -21.453125 14.4375 -21.453125 Z M 8.40625 -1.328125 C 9.445312 -1.328125 10.359375 -1.59375 11.140625 -2.125 C 11.929688 -2.65625 12.550781 -3.378906 13 -4.296875 C 13.457031 -5.222656 13.6875 -6.273438 13.6875 -7.453125 C 13.6875 -8.609375 13.457031 -9.644531 13 -10.5625 C 12.550781 -11.488281 11.929688 -12.21875 11.140625 -12.75 C 10.347656 -13.28125 9.4375 -13.546875 8.40625 -13.546875 C 7.40625 -13.546875 6.503906 -13.28125 5.703125 -12.75 C 4.898438 -12.21875 4.269531 -11.488281 3.8125 -10.5625 C 3.351562 -9.644531 3.125 -8.609375 3.125 -7.453125 C 3.125 -6.296875 3.351562 -5.25 3.8125 -4.3125 C 4.269531 -3.382812 4.898438 -2.65625 5.703125 -2.125 C 6.503906 -1.59375 7.40625 -1.328125 8.40625 -1.328125 Z M 8.40625 -1.328125 "/></g></g></g><g fill="#ffffff" fill-opacity="1"><g transform="translate(219.127547, 272.993185)"><g><path d="M 8.984375 0.296875 C 7.492188 0.296875 6.175781 -0.0195312 5.03125 -0.65625 C 3.894531 -1.300781 3.007812 -2.191406 2.375 -3.328125 C 1.738281 -4.472656 1.421875 -5.8125 1.421875 -7.34375 C 1.421875 -8.976562 1.742188 -10.375 2.390625 -11.53125 C 3.035156 -12.695312 3.875 -13.59375 4.90625 -14.21875 C 5.945312 -14.851562 7.046875 -15.171875 8.203125 -15.171875 C 9.054688 -15.171875 9.882812 -15.019531 10.6875 -14.71875 C 11.488281 -14.414062 12.203125 -13.96875 12.828125 -13.375 C 13.460938 -12.789062 13.96875 -12.070312 14.34375 -11.21875 C 14.71875 -10.375 14.925781 -9.390625 14.96875 -8.265625 C 14.945312 -8.035156 14.847656 -7.835938 14.671875 -7.671875 C 14.492188 -7.503906 14.289062 -7.421875 14.0625 -7.421875 L 2.4375 -7.421875 L 2.09375 -8.984375 L 13.515625 -8.984375 L 13.140625 -8.640625 L 13.140625 -9.21875 C 13.054688 -10.125 12.765625 -10.894531 12.265625 -11.53125 C 11.765625 -12.175781 11.15625 -12.660156 10.4375 -12.984375 C 9.71875 -13.316406 8.972656 -13.484375 8.203125 -13.484375 C 7.628906 -13.484375 7.035156 -13.363281 6.421875 -13.125 C 5.816406 -12.894531 5.265625 -12.535156 4.765625 -12.046875 C 4.273438 -11.554688 3.875 -10.925781 3.5625 -10.15625 C 3.257812 -9.394531 3.109375 -8.492188 3.109375 -7.453125 C 3.109375 -6.304688 3.335938 -5.269531 3.796875 -4.34375 C 4.265625 -3.414062 4.9375 -2.679688 5.8125 -2.140625 C 6.695312 -1.597656 7.75 -1.328125 8.96875 -1.328125 C 9.632812 -1.328125 10.238281 -1.421875 10.78125 -1.609375 C 11.320312 -1.804688 11.796875 -2.066406 12.203125 -2.390625 C 12.609375 -2.710938 12.945312 -3.046875 13.21875 -3.390625 C 13.4375 -3.566406 13.648438 -3.65625 13.859375 -3.65625 C 14.054688 -3.65625 14.226562 -3.578125 14.375 -3.421875 C 14.519531 -3.265625 14.59375 -3.09375 14.59375 -2.90625 C 14.59375 -2.664062 14.492188 -2.460938 14.296875 -2.296875 C 13.710938 -1.597656 12.957031 -0.988281 12.03125 -0.46875 C 11.101562 0.0390625 10.085938 0.296875 8.984375 0.296875 Z M 8.984375 0.296875 "/></g></g></g><g fill="#ffffff" fill-opacity="1"><g transform="translate(235.508127, 272.993185)"><g><path d="M 7.65625 -21.34375 C 7.945312 -21.34375 8.257812 -21.3125 8.59375 -21.25 C 8.9375 -21.195312 9.234375 -21.097656 9.484375 -20.953125 C 9.734375 -20.804688 9.859375 -20.585938 9.859375 -20.296875 C 9.859375 -20.085938 9.78125 -19.898438 9.625 -19.734375 C 9.46875 -19.566406 9.296875 -19.484375 9.109375 -19.484375 C 8.910156 -19.484375 8.664062 -19.535156 8.375 -19.640625 C 8.09375 -19.753906 7.785156 -19.8125 7.453125 -19.8125 C 7.046875 -19.8125 6.695312 -19.71875 6.40625 -19.53125 C 6.113281 -19.34375 5.890625 -19.078125 5.734375 -18.734375 C 5.585938 -18.398438 5.515625 -17.992188 5.515625 -17.515625 L 5.515625 -0.875 C 5.515625 -0.632812 5.429688 -0.425781 5.265625 -0.25 C 5.097656 -0.0820312 4.890625 0 4.640625 0 C 4.390625 0 4.179688 -0.0820312 4.015625 -0.25 C 3.847656 -0.425781 3.765625 -0.632812 3.765625 -0.875 L 3.765625 -17.515625 C 3.765625 -18.753906 4.125 -19.703125 4.84375 -20.359375 C 5.570312 -21.015625 6.507812 -21.34375 7.65625 -21.34375 Z M 8.765625 -14.53125 C 8.992188 -14.53125 9.179688 -14.453125 9.328125 -14.296875 C 9.484375 -14.140625 9.5625 -13.945312 9.5625 -13.71875 C 9.5625 -13.488281 9.484375 -13.296875 9.328125 -13.140625 C 9.179688 -12.984375 8.992188 -12.90625 8.765625 -12.90625 L 1.65625 -12.90625 C 1.4375 -12.90625 1.242188 -12.984375 1.078125 -13.140625 C 0.921875 -13.304688 0.84375 -13.5 0.84375 -13.71875 C 0.84375 -13.96875 0.921875 -14.164062 1.078125 -14.3125 C 1.242188 -14.457031 1.4375 -14.53125 1.65625 -14.53125 Z M 8.765625 -14.53125 "/></g></g></g><g fill="#ffffff" fill-opacity="1"><g transform="translate(245.945309, 272.993185)"><g><path d="M 3.96875 -0.875 C 3.96875 -0.632812 3.878906 -0.425781 3.703125 -0.25 C 3.535156 -0.0820312 3.335938 0 3.109375 0 C 2.847656 0 2.632812 -0.0820312 2.46875 -0.25 C 2.3125 -0.425781 2.234375 -0.632812 2.234375 -0.875 L 2.234375 -14.203125 C 2.234375 -14.441406 2.3125 -14.644531 2.46875 -14.8125 C 2.632812 -14.988281 2.847656 -15.078125 3.109375 -15.078125 C 3.359375 -15.078125 3.5625 -14.988281 3.71875 -14.8125 C 3.882812 -14.644531 3.96875 -14.441406 3.96875 -14.203125 Z M 3.109375 -17.015625 C 2.703125 -17.015625 2.394531 -17.109375 2.1875 -17.296875 C 1.988281 -17.484375 1.890625 -17.75 1.890625 -18.09375 L 1.890625 -18.390625 C 1.890625 -18.734375 2 -18.992188 2.21875 -19.171875 C 2.4375 -19.359375 2.742188 -19.453125 3.140625 -19.453125 C 3.503906 -19.453125 3.785156 -19.359375 3.984375 -19.171875 C 4.191406 -18.992188 4.296875 -18.734375 4.296875 -18.390625 L 4.296875 -18.09375 C 4.296875 -17.75 4.191406 -17.484375 3.984375 -17.296875 C 3.785156 -17.109375 3.492188 -17.015625 3.109375 -17.015625 Z M 3.109375 -17.015625 "/></g></g></g><g fill="#ffffff" fill-opacity="1"><g transform="translate(252.149632, 272.993185)"><g><path d="M 9.28125 -15.171875 C 10.550781 -15.171875 11.566406 -14.910156 12.328125 -14.390625 C 13.097656 -13.878906 13.648438 -13.179688 13.984375 -12.296875 C 14.328125 -11.421875 14.5 -10.453125 14.5 -9.390625 L 14.5 -0.875 C 14.5 -0.632812 14.410156 -0.425781 14.234375 -0.25 C 14.066406 -0.0820312 13.863281 0 13.625 0 C 13.351562 0 13.140625 -0.0820312 12.984375 -0.25 C 12.835938 -0.425781 12.765625 -0.632812 12.765625 -0.875 L 12.765625 -9.3125 C 12.765625 -10.082031 12.632812 -10.785156 12.375 -11.421875 C 12.125 -12.066406 11.710938 -12.582031 11.140625 -12.96875 C 10.578125 -13.351562 9.832031 -13.546875 8.90625 -13.546875 C 8.070312 -13.546875 7.28125 -13.351562 6.53125 -12.96875 C 5.789062 -12.582031 5.1875 -12.066406 4.71875 -11.421875 C 4.257812 -10.785156 4.03125 -10.082031 4.03125 -9.3125 L 4.03125 -0.875 C 4.03125 -0.632812 3.941406 -0.425781 3.765625 -0.25 C 3.597656 -0.0820312 3.394531 0 3.15625 0 C 2.882812 0 2.671875 -0.0820312 2.515625 -0.25 C 2.367188 -0.425781 2.296875 -0.632812 2.296875 -0.875 L 2.296875 -13.859375 C 2.296875 -14.085938 2.375 -14.289062 2.53125 -14.46875 C 2.695312 -14.644531 2.90625 -14.734375 3.15625 -14.734375 C 3.40625 -14.734375 3.613281 -14.644531 3.78125 -14.46875 C 3.945312 -14.289062 4.03125 -14.085938 4.03125 -13.859375 L 4.03125 -11.421875 L 3.359375 -10.375 C 3.398438 -11 3.597656 -11.59375 3.953125 -12.15625 C 4.316406 -12.726562 4.773438 -13.242188 5.328125 -13.703125 C 5.890625 -14.160156 6.515625 -14.519531 7.203125 -14.78125 C 7.890625 -15.039062 8.582031 -15.171875 9.28125 -15.171875 Z M 9.28125 -15.171875 "/></g></g></g><g fill="#ffffff" fill-opacity="1"><g transform="translate(268.907123, 272.993185)"><g><path d="M 8.984375 0.296875 C 7.492188 0.296875 6.175781 -0.0195312 5.03125 -0.65625 C 3.894531 -1.300781 3.007812 -2.191406 2.375 -3.328125 C 1.738281 -4.472656 1.421875 -5.8125 1.421875 -7.34375 C 1.421875 -8.976562 1.742188 -10.375 2.390625 -11.53125 C 3.035156 -12.695312 3.875 -13.59375 4.90625 -14.21875 C 5.945312 -14.851562 7.046875 -15.171875 8.203125 -15.171875 C 9.054688 -15.171875 9.882812 -15.019531 10.6875 -14.71875 C 11.488281 -14.414062 12.203125 -13.96875 12.828125 -13.375 C 13.460938 -12.789062 13.96875 -12.070312 14.34375 -11.21875 C 14.71875 -10.375 14.925781 -9.390625 14.96875 -8.265625 C 14.945312 -8.035156 14.847656 -7.835938 14.671875 -7.671875 C 14.492188 -7.503906 14.289062 -7.421875 14.0625 -7.421875 L 2.4375 -7.421875 L 2.09375 -8.984375 L 13.515625 -8.984375 L 13.140625 -8.640625 L 13.140625 -9.21875 C 13.054688 -10.125 12.765625 -10.894531 12.265625 -11.53125 C 11.765625 -12.175781 11.15625 -12.660156 10.4375 -12.984375 C 9.71875 -13.316406 8.972656 -13.484375 8.203125 -13.484375 C 7.628906 -13.484375 7.035156 -13.363281 6.421875 -13.125 C 5.816406 -12.894531 5.265625 -12.535156 4.765625 -12.046875 C 4.273438 -11.554688 3.875 -10.925781 3.5625 -10.15625 C 3.257812 -9.394531 3.109375 -8.492188 3.109375 -7.453125 C 3.109375 -6.304688 3.335938 -5.269531 3.796875 -4.34375 C 4.265625 -3.414062 4.9375 -2.679688 5.8125 -2.140625 C 6.695312 -1.597656 7.75 -1.328125 8.96875 -1.328125 C 9.632812 -1.328125 10.238281 -1.421875 10.78125 -1.609375 C 11.320312 -1.804688 11.796875 -2.066406 12.203125 -2.390625 C 12.609375 -2.710938 12.945312 -3.046875 13.21875 -3.390625 C 13.4375 -3.566406 13.648438 -3.65625 13.859375 -3.65625 C 14.054688 -3.65625 14.226562 -3.578125 14.375 -3.421875 C 14.519531 -3.265625 14.59375 -3.09375 14.59375 -2.90625 C 14.59375 -2.664062 14.492188 -2.460938 14.296875 -2.296875 C 13.710938 -1.597656 12.957031 -0.988281 12.03125 -0.46875 C 11.101562 0.0390625 10.085938 0.296875 8.984375 0.296875 Z M 8.984375 0.296875 "/></g></g></g><g fill="#ffffff" fill-opacity="1"><g transform="translate(285.287691, 272.993185)"><g><path d="M 14.4375 -21.453125 C 14.6875 -21.453125 14.894531 -21.367188 15.0625 -21.203125 C 15.226562 -21.046875 15.3125 -20.84375 15.3125 -20.59375 L 15.3125 -0.875 C 15.3125 -0.632812 15.222656 -0.425781 15.046875 -0.25 C 14.878906 -0.0820312 14.675781 0 14.4375 0 C 14.1875 0 13.976562 -0.0820312 13.8125 -0.25 C 13.65625 -0.425781 13.578125 -0.632812 13.578125 -0.875 L 13.578125 -4.328125 L 14.0625 -4.734375 C 14.0625 -4.191406 13.914062 -3.625 13.625 -3.03125 C 13.332031 -2.4375 12.921875 -1.890625 12.390625 -1.390625 C 11.859375 -0.890625 11.238281 -0.484375 10.53125 -0.171875 C 9.832031 0.140625 9.078125 0.296875 8.265625 0.296875 C 6.972656 0.296875 5.804688 -0.0390625 4.765625 -0.71875 C 3.734375 -1.394531 2.914062 -2.3125 2.3125 -3.46875 C 1.71875 -4.632812 1.421875 -5.960938 1.421875 -7.453125 C 1.421875 -8.921875 1.71875 -10.238281 2.3125 -11.40625 C 2.914062 -12.582031 3.726562 -13.503906 4.75 -14.171875 C 5.78125 -14.835938 6.941406 -15.171875 8.234375 -15.171875 C 9.023438 -15.171875 9.78125 -15.023438 10.5 -14.734375 C 11.21875 -14.441406 11.847656 -14.039062 12.390625 -13.53125 C 12.941406 -13.03125 13.378906 -12.457031 13.703125 -11.8125 C 14.023438 -11.164062 14.1875 -10.492188 14.1875 -9.796875 L 13.578125 -10.234375 L 13.578125 -20.59375 C 13.578125 -20.820312 13.65625 -21.019531 13.8125 -21.1875 C 13.976562 -21.363281 14.1875 -21.453125 14.4375 -21.453125 Z M 8.40625 -1.328125 C 9.445312 -1.328125 10.359375 -1.59375 11.140625 -2.125 C 11.929688 -2.65625 12.550781 -3.378906 13 -4.296875 C 13.457031 -5.222656 13.6875 -6.273438 13.6875 -7.453125 C 13.6875 -8.609375 13.457031 -9.644531 13 -10.5625 C 12.550781 -11.488281 11.929688 -12.21875 11.140625 -12.75 C 10.347656 -13.28125 9.4375 -13.546875 8.40625 -13.546875 C 7.40625 -13.546875 6.503906 -13.28125 5.703125 -12.75 C 4.898438 -12.21875 4.269531 -11.488281 3.8125 -10.5625 C 3.351562 -9.644531 3.125 -8.609375 3.125 -7.453125 C 3.125 -6.296875 3.351562 -5.25 3.8125 -4.3125 C 4.269531 -3.382812 4.898438 -2.65625 5.703125 -2.125 C 6.503906 -1.59375 7.40625 -1.328125 8.40625 -1.328125 Z M 8.40625 -1.328125 "/></g></g></g><g fill="#ffffff" fill-opacity="1"><g transform="translate(302.856934, 272.993185)"><g><path d="M 2.703125 -2.71875 C 2.484375 -2.71875 2.289062 -2.8125 2.125 -3 C 1.96875 -3.1875 1.890625 -3.375 1.890625 -3.5625 C 1.890625 -3.757812 1.941406 -3.914062 2.046875 -4.03125 C 2.148438 -4.144531 2.328125 -4.269531 2.578125 -4.40625 L 12.875 -10.03125 L 12.9375 -9.25 L 2.46875 -15.109375 C 2.3125 -15.179688 2.1875 -15.28125 2.09375 -15.40625 C 2.007812 -15.539062 1.96875 -15.703125 1.96875 -15.890625 C 1.96875 -16.117188 2.050781 -16.320312 2.21875 -16.5 C 2.382812 -16.675781 2.582031 -16.753906 2.8125 -16.734375 C 2.90625 -16.734375 3.015625 -16.707031 3.140625 -16.65625 C 3.265625 -16.613281 3.390625 -16.550781 3.515625 -16.46875 L 13.6875 -10.734375 C 13.914062 -10.597656 14.09375 -10.453125 14.21875 -10.296875 C 14.34375 -10.140625 14.40625 -9.945312 14.40625 -9.71875 C 14.40625 -9.476562 14.359375 -9.273438 14.265625 -9.109375 C 14.171875 -8.953125 14.007812 -8.816406 13.78125 -8.703125 L 3.421875 -2.984375 C 3.304688 -2.910156 3.1875 -2.847656 3.0625 -2.796875 C 2.9375 -2.742188 2.816406 -2.71875 2.703125 -2.71875 Z M 2.703125 -2.71875 "/></g></g></g><g clip-path="url(#d00fa19880)"><path fill="#ffffff" d="M 334.867188 97.71875 L 332.953125 97.71875 C 332.109375 97.71875 331.761719 97.101562 331.761719 96.507812 C 331.761719 95.894531 332.199219 95.296875 332.953125 95.296875 L 339.410156 95.296875 C 340.164062 95.296875 340.601562 95.894531 340.601562 96.507812 C 340.601562 97.101562 340.253906 97.71875 339.410156 97.71875 L 337.496094 97.71875 L 337.496094 106.527344 C 337.496094 107.402344 336.9375 107.894531 336.179688 107.894531 C 335.425781 107.894531 334.867188 107.402344 334.867188 106.527344 Z M 342.460938 96.542969 C 342.566406 95.910156 343.253906 95.191406 344.183594 95.191406 C 345.058594 95.191406 345.742188 95.824219 345.9375 96.453125 L 348.007812 103.402344 L 348.042969 103.402344 L 350.113281 96.453125 C 350.304688 95.824219 350.992188 95.191406 351.867188 95.191406 C 352.796875 95.191406 353.480469 95.910156 353.585938 96.542969 L 355.21875 106.332031 C 355.234375 106.4375 355.234375 106.542969 355.234375 106.628906 C 355.234375 107.402344 354.675781 107.894531 353.972656 107.894531 C 353.078125 107.894531 352.726562 107.488281 352.605469 106.664062 L 351.570312 99.523438 L 351.535156 99.523438 L 349.429688 106.875 C 349.304688 107.296875 348.972656 107.894531 348.027344 107.894531 C 347.078125 107.894531 346.742188 107.296875 346.621094 106.875 L 344.515625 99.523438 L 344.480469 99.523438 L 343.445312 106.664062 C 343.324219 107.492188 342.972656 107.894531 342.078125 107.894531 C 341.375 107.894531 340.8125 107.402344 340.8125 106.628906 C 340.8125 106.542969 340.8125 106.4375 340.832031 106.332031 Z M 342.460938 96.542969 " fill-opacity="1" fill-rule="nonzero"/></g></svg>